<?xml version="1.0" standalone="no"?>
<!DOCTYPE svg PUBLIC "-//W3C//DTD SVG 20010904//EN"
 "http://www.w3.org/TR/2001/REC-SVG-20010904/DTD/svg10.dtd">
<svg version="1.0" xmlns="http://www.w3.org/2000/svg"
 width="1280.000000pt" height="1279.000000pt" viewBox="0 0 1280.000000 1279.000000"
 preserveAspectRatio="xMidYMid meet">
<metadata>
Created by potrace 1.15, written by Peter Selinger 2001-2017
</metadata>
<g transform="translate(0.000000,1279.000000) scale(0.100000,-0.100000)"
fill="#000000" stroke="none">
<path d="M84 12776 c-34 -15 -72 -58 -80 -92 -12 -48 32 -476 76 -739 215
-1269 769 -2631 1568 -3850 608 -928 1330 -1763 2173 -2515 101 -90 187 -173
191 -184 3 -12 11 -165 17 -341 18 -514 70 -1852 75 -1944 5 -82 18 -118 55
-149 40 -34 769 -375 1991 -932 1061 -484 1081 -493 1128 -493 51 0 88 24 117
76 l19 36 -46 618 c-25 340 -45 619 -43 621 1 1 15 -33 30 -75 123 -343 440
-1099 549 -1309 203 -389 488 -734 814 -982 105 -80 227 -155 280 -173 30 -10
36 -8 58 12 67 63 135 381 136 640 1 168 -14 218 -109 375 -36 60 -75 124 -86
142 -23 38 -17 50 17 34 31 -14 256 -184 507 -384 690 -549 1158 -868 1544
-1054 231 -112 359 -139 409 -88 27 27 22 276 -9 419 -45 210 -141 462 -339
893 -200 434 -248 557 -268 688 -10 63 -9 75 8 110 27 54 74 70 164 54 36 -6
209 -63 385 -127 736 -265 978 -341 1156 -363 328 -40 301 147 -86 595 -169
195 -433 468 -685 706 -331 313 -522 507 -564 570 -130 198 93 225 879 109
243 -36 448 -48 514 -30 24 6 57 24 73 40 40 41 40 121 -2 229 -66 171 -166
309 -374 516 -422 420 -1099 902 -2166 1542 -168 100 -311 186 -319 191 -10 5
8 14 54 27 l69 18 893 -89 894 -89 36 20 c52 28 78 68 78 118 0 47 -8 65 -580
1402 -420 979 -677 1570 -729 1673 -39 78 -81 119 -129 126 -18 3 -552 28
-1188 56 l-1155 51 -210 207 c-755 747 -1579 1334 -2566 1828 -1450 726 -3199
1177 -4898 1264 -250 13 -288 12 -326 -4z"/>
</g>
</svg>
